<?xml version="1.0" encoding="utf-8"?>
<!-- Generator: Adobe Illustrator 16.0.0, SVG Export Plug-In . SVG Version: 6.00 Build 0)  -->
<!DOCTYPE svg PUBLIC "-//W3C//DTD SVG 1.1//EN" "http://www.w3.org/Graphics/SVG/1.1/DTD/svg11.dtd">
<svg version="1.1" id="Layer_2" xmlns="http://www.w3.org/2000/svg" xmlns:xlink="http://www.w3.org/1999/xlink" x="0px" y="0px"
	 width="1000px" height="1000px" viewBox="0 0 1000 1000" enable-background="new 0 0 1000 1000" xml:space="preserve">
<polygon fill="#254E70" points="19.125,499.75 327.75,191 330,191 638.75,499.5 638.334,500.833 563.334,575.333 508.001,520.166 
	526.668,501.333 526.834,499 329.667,302 327.834,301.833 131.168,499 130.834,501.166 327.834,698 329.334,698.333 
	436.168,591.167 438.334,591 492.001,645.667 491.667,648 329.834,809.833 328.167,810 "/>
<polygon fill="#254E70" points="981.749,499.627 672.749,808.002 670.499,807.998 362.124,499.123 362.542,497.789 437.632,423.382 
	492.898,478.616 474.208,497.427 474.04,499.759 670.966,696.999 672.799,697.168 869.705,500.241 870.041,498.075 673.281,301.001 
	671.782,300.667 564.818,407.702 562.651,407.867 509.051,353.134 509.386,350.802 671.418,189.166 673.083,189.001 "/>
</svg>
